<svg width="24" height="24" viewBox="0 0 24 24" fill="none" xmlns="http://www.w3.org/2000/svg">
<path fill-rule="evenodd" clip-rule="evenodd" d="M4 6.09937H20.0031V18.0994H4V6.09937Z" fill="white"/>
<path fill-rule="evenodd" clip-rule="evenodd" d="M15.5297 14.4603L17.6096 15.8474Z" fill="black"/>
<path d="M15.5297 14.4603L17.6096 15.8474" stroke="white" stroke-width="1.25"/>
<path fill-rule="evenodd" clip-rule="evenodd" d="M9.49802 10.4377C9.93948 9.7758 10.6258 9.31634 11.406 9.16043C12.1863 9.00453 12.9965 9.16495 13.6584 9.60642C14.3204 10.0479 14.7798 10.7342 14.9357 11.5144C15.0916 12.2947 14.9312 13.1049 14.4897 13.7668L9.49802 10.4377Z" fill="#CD2E3A"/>
<path fill-rule="evenodd" clip-rule="evenodd" d="M9.498 10.4377C9.05654 11.0997 8.89611 11.9099 9.05202 12.6901C9.20792 13.4703 9.66738 14.1567 10.3293 14.5981C10.9913 15.0396 11.8015 15.2 12.5817 15.0441C13.3619 14.8882 14.0483 14.4287 14.4897 13.7668C14.7105 13.4358 14.7907 13.0307 14.7127 12.6406C14.6348 12.2505 14.405 11.9073 14.0741 11.6866C13.7431 11.4659 13.338 11.3857 12.9479 11.4636C12.5578 11.5416 12.2146 11.7713 11.9939 12.1023L9.498 10.4377Z" fill="#0047A0"/>
<path d="M11.9939 12.1023C12.4535 11.4131 12.2674 10.4817 11.5782 10.0221C10.889 9.56242 9.95766 9.74852 9.49801 10.4377C9.03836 11.127 9.22446 12.0583 9.91367 12.5179C10.6029 12.9776 11.5342 12.7915 11.9939 12.1023Z" fill="#CD2E3A"/>
<path fill-rule="evenodd" clip-rule="evenodd" d="M5.99976 9.74365L7.66429 7.24779L8.08027 7.52521L6.41573 10.0211L5.99976 9.74365ZM6.62372 10.1598L8.28826 7.66392L8.70423 7.94134L7.0397 10.4372L6.62372 10.1598ZM7.24769 10.5759L8.91222 8.08006L9.3282 8.35748L7.66366 10.8533L7.24769 10.5759Z" fill="black"/>
<path fill-rule="evenodd" clip-rule="evenodd" d="M7.67017 16.9584L6.00563 14.4625L6.42161 14.1851L8.08614 16.681L7.67017 16.9584ZM8.29413 16.5422L6.6296 14.0464L7.04558 13.769L8.71011 16.2648L8.29413 16.5422ZM8.9181 16.1261L7.25356 13.6302L7.66954 13.3528L9.33407 15.8487L8.9181 16.1261Z" fill="black"/>
<path fill-rule="evenodd" clip-rule="evenodd" d="M18.3342 14.4625L16.6697 16.9584L16.2537 16.681L17.9183 14.1851L18.3342 14.4625ZM17.7103 14.0464L16.0457 16.5423L15.6298 16.2648L17.2943 13.769L17.7103 14.0464ZM17.0863 13.6303L15.4218 16.1261L15.0058 15.8487L16.6703 13.3528L17.0863 13.6303Z" fill="black"/>
<path fill-rule="evenodd" clip-rule="evenodd" d="M16.6638 7.2478L18.3284 9.74367L17.9124 10.0211L16.2478 7.52522L16.6638 7.2478ZM16.0399 7.66394L17.7044 10.1598L17.2884 10.4372L15.6239 7.94136L16.0399 7.66394ZM15.4159 8.08007L17.0804 10.5759L16.6644 10.8534L14.9999 8.35749L15.4159 8.08007Z" fill="black"/>
</svg>
